<svg xmlns="http://www.w3.org/2000/svg" xmlns:xlink="http://www.w3.org/1999/xlink" viewBox="0 0 270 270" width="270" height="270">
  <g id="caseUpperOpen" opacity="0">
    <path d="M213.69 172.3C216.833 172.3 219.38 169.752 219.38 166.61C219.38 163.467 216.833 160.92 213.69 160.92C210.548 160.92 208 163.467 208 166.61C208 169.752 210.548 172.3 213.69 172.3Z" fill="#A67EE5" stroke="white" stroke-width="2" stroke-miterlimit="10"/>
    <path d="M200.06 150.67H26.95C23.7847 150.67 20.7475 151.92 18.4999 154.149C16.2523 156.378 14.9764 159.405 14.95 162.57V216.19C14.95 219.638 16.3196 222.944 18.7576 225.382C21.1956 227.82 24.5022 229.19 27.95 229.19H211.95V162.57C211.924 159.424 210.663 156.414 208.439 154.188C206.215 151.962 203.206 150.699 200.06 150.67V150.67Z" fill="#A67EE5" stroke="white" stroke-width="2" stroke-miterlimit="10"/>
    <path d="M30 229.19V165.68C30 161.702 31.5804 157.886 34.3934 155.073C37.2064 152.26 41.0218 150.68 45 150.68H45.5" stroke="white" stroke-width="2" fill="none"/>
    <animate
      attributeName="opacity"
      from="0" to="1"
      begin="introFadeIn.end+1s"
      dur="10ms"
      fill="freeze"/>
  </g>
  <g id="flower1" opacity="0" transform="rotate(45 138 228)">
    <path d="M138 227.82C138 227.82 144.89 183.14 175.95 171.29" stroke="white" stroke-width="2" stroke-linecap="round" stroke-linejoin="round" fill="none"/>
    <path d="M170.61 172.19L179.61 155.72C181.833 156.265 183.92 157.263 185.74 158.65C186.984 158.048 188.398 157.9 189.74 158.23C190.472 158.396 191.163 158.706 191.774 159.141C192.386 159.576 192.904 160.128 193.301 160.765C193.697 161.402 193.963 162.112 194.083 162.853C194.203 163.593 194.175 164.35 194 165.08C193.661 166.402 192.845 167.552 191.71 168.31C192.125 170.492 192.053 172.739 191.5 174.89L172.16 174.78C171.853 174.787 171.55 174.715 171.28 174.569C171.01 174.423 170.783 174.209 170.621 173.948C170.46 173.687 170.369 173.389 170.358 173.082C170.347 172.776 170.417 172.471 170.56 172.2" fill="#3B7BF2"/>
    <animate
      attributeName="opacity"
      from="0" to="1"
      begin="caseOpen.begin"
      dur="10ms"
      fill="freeze"/>
    <animateTransform
      attributeName="transform"
      type="rotate"
      begin="caseOpen.begin+50ms"
      dur="1200ms"
      values="45 138 228; -5 138 228; 15 138 228; 0 138 228; 5 138 228; 0 138 228"
      keySplines="0.16 1 0.3 1; 0.76 0 0.24 1; 0.76 0 0.24 1; 0.76 0 0.24 1; 0.76 0 0.24 1"
      keyTimes="0; 0.40; 0.55; 0.70; 0.85; 1"
      calcMode="spline"
      fill="freeze"/>
  </g>
  <g id="flower2" opacity="0" transform="rotate(45 138 228)">
    <path d="M138.49 226.99C138.49 226.99 146.79 152.4 178.2 136.99" stroke="white" stroke-width="2" stroke-linecap="round" stroke-linejoin="round" fill="none"/>
    <path d="M175.71 136.31L184.98 111.82C188.066 112.193 191.038 113.215 193.7 114.82C195.347 113.701 197.356 113.248 199.324 113.552C201.291 113.856 203.071 114.894 204.303 116.458C205.536 118.021 206.13 119.993 205.966 121.978C205.802 123.962 204.892 125.81 203.42 127.15C204.348 130.116 204.641 133.244 204.28 136.33L178.28 139.63C177.862 139.683 177.437 139.626 177.046 139.467C176.656 139.307 176.314 139.049 176.052 138.718C175.791 138.387 175.619 137.995 175.554 137.578C175.489 137.161 175.532 136.735 175.68 136.34" fill="#3B7BF2"/>
    <animate
      attributeName="opacity"
      from="0" to="1"
      begin="caseOpen.begin"
      dur="10ms"
      fill="freeze"/>
    <animateTransform
      attributeName="transform"
      type="rotate"
      begin="caseOpen.begin+50ms"
      dur="1100ms"
      values="50 138 228; -15 138 228; 10 138 228; 0 138 228; 5 138 228; 0 138 228"
      keySplines="0.16 1 0.3 1; 0.76 0 0.24 1; 0.76 0 0.24 1; 0.76 0 0.24 1; 0.76 0 0.24 1"
      keyTimes="0; 0.40; 0.55; 0.70; 0.85; 1"
      calcMode="spline"
      fill="freeze"/>
  </g>
  <g id="flower3" opacity="0" transform="rotate(45 138 228)">
    <path d="M101.53 144.35C125.63 176.8 137.34 228.35 137.34 228.35" stroke="#3B7BF2" stroke-width="2" stroke-linecap="round" stroke-linejoin="round" fill="none"/>
    <path d="M85.49 136.41C92.03 143.92 102.65 145.41 102.65 145.41C102.65 145.41 102.65 134.69 96.12 127.19C89.59 119.69 78.95 118.19 78.95 118.19C78.95 118.19 78.95 128.91 85.49 136.41" fill="#76ABFF"/>
    <path d="M112.93 146.73C110.24 156.31 114.84 166 114.84 166C114.84 166 123.84 160.14 126.51 150.55C129.18 140.96 124.6 131.28 124.6 131.28C124.6 131.28 115.6 137.14 112.93 146.73Z" fill="#3B7BF2"/>
    <path d="M95.58 167.9C105.17 170.6 114.84 165.99 114.84 165.99C114.84 165.99 108.98 156.99 99.39 154.32C89.8 151.65 80.13 156.19 80.13 156.19C80.13 156.19 86 165.19 95.58 167.86" fill="#3B7BF2"/>
    <path d="M125.86 172.71C122.45 182.07 126.33 192.06 126.33 192.06C126.33 192.06 135.72 186.88 139.12 177.53C142.52 168.18 138.65 158.19 138.65 158.19C138.65 158.19 129.26 163.37 125.86 172.72" fill="#1553B7"/>
    <path d="M106.98 192.54C116.34 195.94 126.33 192.07 126.33 192.07C126.33 192.07 121.15 182.68 111.79 179.28C102.43 175.88 92.44 179.75 92.44 179.75C92.44 179.75 97.62 189.14 106.98 192.54Z" fill="#1553B7"/>
    <animate
      attributeName="opacity"
      from="0" to="1"
      begin="caseOpen.begin"
      dur="10ms"
      fill="freeze"/>
    <animateTransform
      attributeName="transform"
      type="rotate"
      begin="caseOpen.begin+50ms"
      dur="1500ms"
      values="90 138 228; -10 138 228; 15 138 228; 0 138 228; 5 138 228; 0 138 228"
      keySplines="0.16 1 0.3 1; 0.76 0 0.24 1; 0.76 0 0.24 1; 0.76 0 0.24 1; 0.76 0 0.24 1"
      keyTimes="0; 0.40; 0.55; 0.70; 0.85; 1"
      calcMode="spline"
      fill="freeze"/>
  </g>
  <g id="flower4" opacity="0" transform="rotate(45 138 228)">
    <path d="M143.55 204.96C145.85 214.06 141.28 223.08 141.28 223.08C141.28 223.08 132.96 217.34 130.65 208.23C128.34 199.12 132.92 190.11 132.92 190.11C132.92 190.11 141.24 195.86 143.55 204.96Z" fill="#3B7BF2"/>
    <path d="M159.39 225.35C150.28 227.66 141.27 223.08 141.27 223.08C141.27 223.08 147.01 214.76 156.12 212.45C165.23 210.14 174.24 214.72 174.24 214.72C174.24 214.72 168.49 223.04 159.39 225.35Z" fill="#3B7BF2"/>
    <path d="M148.32 211.86C144.511 217.157 141.067 222.706 138.01 228.47" stroke="#3B7BF2" stroke-width="2" stroke-linecap="round" stroke-linejoin="round" fill="none" />
    <path d="M163.45 204.38C157.28 211.46 147.26 212.82 147.26 212.82C147.26 212.82 147.26 202.71 153.42 195.64C159.58 188.57 169.61 187.19 169.61 187.19C169.61 187.19 169.61 197.3 163.45 204.38Z" fill="#76ABFF"/>
    <animate
      attributeName="opacity"
      from="0" to="1"
      begin="caseOpen.begin"
      dur="10ms"
      fill="freeze"/>
    <animateTransform
      attributeName="transform"
      type="rotate"
      begin="caseOpen.begin+50ms"
      dur="1200ms"
      values="50 138 228; -5 138 228; 10 138 228; 0 138 228"
      keySplines="0.83 0 0.17 1; 0.83 0 0.17 1; 0.83 0 0.17 1"
      keyTimes="0; 0.30; 0.60; 1"
      calcMode="spline"
      fill="freeze"/>
  </g>
  <g id="balloon" opacity="0" transform="translate(60 190) rotate(45 35 45)">
    <path d="M34.5 1.61C43.2231 1.61265 51.5883 5.07837 57.7574 11.2456C63.9264 17.4128 67.3947 25.7769 67.4 34.5C67.4 52.67 52.31 83.39 34.15 83.39C15.99 83.39 1.6 52.66 1.6 34.5C1.6053 25.7769 5.07357 17.4128 11.2427 11.2456C17.4117 5.07837 25.7769 1.61265 34.5 1.61V1.61ZM34.5 0C25.3533 0.0105865 16.5842 3.6488 10.1165 10.1165C3.6488 16.5842 0.0105865 25.3533 0 34.5C0 44.01 3.8 56.6 9.68 66.57C16.68 78.45 25.36 84.99 34.14 84.99C42.92 84.99 51.74 78.45 58.95 66.59C65.05 56.59 69 43.95 69 34.5C68.9894 25.3533 65.3512 16.5842 58.8835 10.1165C52.4158 3.6488 43.6467 0.0105865 34.5 0" fill="white"/>
    <path d="M22.82 34.58C22.82 16.42 28.05 1.69 34.5 1.69C25.7769 1.69265 17.4117 5.15837 11.2427 11.3256C5.07357 17.4928 1.6053 25.8569 1.6 34.58C1.6 52.75 15.98 83.47 34.15 83.47H34.32C27.89 83.28 22.82 52.7 22.82 34.58Z" fill="#76ABFF"/>
    <path d="M67.4 34.58C67.3947 25.8569 63.9264 17.4928 57.7574 11.3256C51.5883 5.15837 43.2231 1.69265 34.5 1.69C40.95 1.69 46.18 16.42 46.18 34.58C46.18 52.74 40.89 83.06 34.5 83.45C52.5 83.06 67.4 52.63 67.4 34.58" fill="#1553B7"/>
    <path d="M46.18 34.58C46.18 16.42 40.95 1.69 34.5 1.69C28.05 1.69 22.82 16.42 22.82 34.58C22.82 52.74 27.89 83.27 34.32 83.47H34.5C40.89 83.07 46.18 52.64 46.18 34.59" fill="#3B7BF2"/>
    <path d="M27.3 27.55C26.1726 27.55 25.0706 27.8843 24.1332 28.5106C23.1959 29.137 22.4653 30.0272 22.0339 31.0687C21.6025 32.1103 21.4896 33.2563 21.7095 34.362C21.9295 35.4677 22.4723 36.4834 23.2695 37.2805C24.0666 38.0777 25.0823 38.6205 26.188 38.8405C27.2937 39.0604 28.4398 38.9475 29.4813 38.5161C30.5228 38.0847 31.413 37.3541 32.0394 36.4168C32.6657 35.4794 33 34.3774 33 33.25C33.0451 32.4897 32.9286 31.7284 32.6581 31.0164C32.3877 30.3044 31.9694 29.6578 31.4308 29.1192C30.8922 28.5806 30.2456 28.1623 29.5336 27.8918C28.8216 27.6214 28.0603 27.5049 27.3 27.55V27.55ZM27.3 35.55C25.44 35.55 24.24 34.62 24.24 33.26C24.24 31.9 25.45 30.97 27.3 30.97C29.15 30.97 30.37 31.9 30.37 33.26C30.37 34.62 29.12 35.55 27.3 35.55Z" fill="white"/>
    <path d="M41.5 27.55C41.8256 27.5498 42.1451 27.6389 42.4236 27.8076C42.7021 27.9764 42.929 28.2183 43.0796 28.507C43.2301 28.7958 43.2986 29.1203 43.2775 29.4452C43.2564 29.7702 43.1466 30.0831 42.96 30.35L29.63 49.69C29.3428 50.0217 28.9437 50.2363 28.5087 50.2931C28.0736 50.3499 27.6329 50.2449 27.2701 49.9982C26.9073 49.7514 26.6478 49.38 26.5409 48.9545C26.434 48.5289 26.487 48.079 26.69 47.69L40.03 28.35C40.1934 28.1113 40.4129 27.9163 40.6692 27.7821C40.9254 27.6478 41.2107 27.5784 41.5 27.58" fill="white"/>
    <path d="M42.97 39.07C41.8426 39.07 40.7406 39.4043 39.8033 40.0306C38.8659 40.6569 38.1353 41.5472 37.7039 42.5887C37.2725 43.6302 37.1596 44.7763 37.3795 45.882C37.5995 46.9877 38.1423 48.0034 38.9395 48.8005C39.7366 49.5977 40.7523 50.1405 41.858 50.3605C42.9637 50.5804 44.1098 50.4675 45.1513 50.0361C46.1928 49.6047 47.0831 48.8741 47.7094 47.9367C48.3357 46.9994 48.67 45.8974 48.67 44.77C48.7135 44.0101 48.5959 43.2495 48.3249 42.5382C48.0538 41.827 47.6355 41.181 47.0972 40.6428C46.559 40.1045 45.913 39.6862 45.2018 39.4151C44.4905 39.1441 43.7299 39.0265 42.97 39.07ZM42.97 47.07C41.11 47.07 39.91 46.14 39.91 44.78C39.91 43.42 41.12 42.49 42.97 42.49C44.82 42.49 46.04 43.39 46.04 44.78C46.04 46.17 44.83 47.07 42.97 47.07Z" fill="white"/>
    <path d="M33.34 84.06L31.15 87.85C31.0345 88.0541 30.9746 88.285 30.9762 88.5196C30.9779 88.7542 31.0411 88.9842 31.1596 89.1866C31.278 89.3891 31.4475 89.5569 31.6512 89.6733C31.8548 89.7898 32.0854 89.8507 32.32 89.85H36.69C36.9237 89.8489 37.1531 89.7867 37.3554 89.6696C37.5576 89.5525 37.7257 89.3845 37.843 89.1823C37.9602 88.9801 38.0226 88.7508 38.0238 88.5171C38.025 88.2834 37.9651 88.0534 37.85 87.85L35.67 84.06C35.551 83.8567 35.3808 83.6881 35.1764 83.5709C34.9721 83.4538 34.7406 83.3921 34.505 83.3921C34.2694 83.3921 34.0379 83.4538 33.8336 83.5709C33.6292 83.6881 33.459 83.8567 33.34 84.06Z" fill="white"/>
    <animate
      attributeName="opacity"
      from="0" to="1"
      begin="caseOpen.begin"
      dur="10ms"
      fill="freeze"/>
    <animateTransform
      attributeName="transform"
      type="translate"
      begin="caseOpen.begin"
      dur="2s"
      values="60 190; 27 23; 39 45; 34 22; 33 22"
      keySplines="0.32 0 0.67 0; 0.33 1 0.68 1; 0.32 0 0.67 0; 0.33 1 0.68 1"
      keyTimes="0; 0.25; 0.50; 0.75; 1"
      calcMode="spline"
      additive="replace"
      fill="freeze"/>
    <animateTransform
      attributeName="transform"
      type="rotate"
      begin="caseOpen.begin"
      dur="2s"
      values="45 35 45; -10 35 45; 0 35 45; 10 35 45; 0 35 45"
      keySplines="0.32 0 0.67 0; 0.33 1 0.68 1; 0.32 0 0.67 0; 0.33 1 0.68 1"
      keyTimes="0; 0.25; 0.50; 0.75; 1"
      calcMode="spline"
      additive="sum"
      fill="freeze"/>
  </g>
  <path id="balloonString" opacity="1" d="M67.5,229 L65,260.5" stroke="white" stroke-width="2" stroke-miterlimit="10" stroke-linecap="round" fill="none">
    <animate
      attributeName="d"
      begin="caseOpen.begin"
      dur="2s"
      values="M67.5,229 L65,260.5; M67.5,229 L68.5,108.5; M67.5,229 L73.5,130; M67.5,229 L63,106; M67.5,229 L67.5,107"
      keySplines="0.32 0 0.67 0; 0.33 1 0.68 1; 0.32 0 0.67 0; 0.33 1 0.68 1"
      keyTimes="0; 0.25; 0.50; 0.75; 1"
      calcMode="spline"
      fill="freeze"/>
  </path>
  <g id="colibri" opacity="0" transform="translate(166 165) rotate(-80 21 20)">
    <path id="colibriWing" d="M16.96 16.8457C16.9525 15.7326 17.325 14.6502 18.0159 13.7774C18.7068 12.9047 19.6749 12.2938 20.76 12.0457V12.0457L41.83 6.64568C34.05 21.4857 22.65 21.7157 21.83 21.7157C20.5391 21.7025 19.3056 21.1804 18.3975 20.2629C17.4893 19.3454 16.9799 18.1066 16.98 16.8157" fill="white">
      <animateTransform
        attributeName="transform"
        type="translate"
        begin="caseOpen.begin"
        dur="100ms"
        values="0 0; 30 0; 0 0"
        additive="replace"
        repeatCount="indefinite"/>
      <animateTransform
        attributeName="transform"
        type="scale"
        begin="caseOpen.begin"
        dur="100ms"
        values="1 1; -0.5 1; 1 1"
        additive="sum"
        repeatCount="indefinite"/>
    </path>
    <path id="colibriBody" d="M0 2.90566H10.76C11.1145 2.03227 11.7261 1.28725 12.5137 0.769341C13.3012 0.251435 14.2276 -0.0148899 15.17 0.00566876C15.8534 -0.0311654 16.5344 0.111994 17.1451 0.420845C17.7558 0.729696 18.2747 1.19342 18.65 1.76566C19.2001 2.57628 19.6595 3.44481 20.02 4.35566C20.65 5.92566 24.02 20.1557 25.91 23.5157C27.01 25.5157 30.3 30.6757 30.3 30.6757C30.5025 31.0251 30.6095 31.4218 30.61 31.8257V41.0457C30.61 41.0457 27.5 39.9657 27.5 37.1357V30.6057C25.59 30.8757 21.5 28.9557 19.17 27.7257C16.2801 26.3458 14.0113 23.9343 12.81 20.9657C11.5984 18.0398 11.559 14.7598 12.7 11.8057C13.1678 10.9031 13.4372 9.9109 13.49 8.89567C13.43 7.75567 12.1 6.17567 11.31 4.84566L0 2.90566Z" fill="white"/>
    <animate
      attributeName="opacity"
      from="0" to="1"
      begin="caseOpen.begin"
      dur="10ms"
      fill="freeze"/>
    <animateTransform
      id="colibriTakeOff"
      attributeName="transform"
      type="translate"
      from="166 165" to="222 107"
      begin="caseOpen.begin"
      dur="200ms"
      keySplines="0.65 0 0.35 1"
      calcMode="spline"
      additive="replace"
      fill="freeze"/>
    <animateTransform
      attributeName="transform"
      type="rotate"
      from="-80 21 20" to="0 21 20"
      begin="colibriTakeOff.begin"
      dur="200ms"
      keySplines="0.65 0 0.35 1"
      calcMode="spline"
      additive="sum"
      fill="freeze"/>
    <animateTransform
      attributeName="transform"
      type="translate"
      begin="colibriTakeOff.end"
      dur="3s"
      values="222 107; 219 110; 212 124; 215 121; 222 107"
      keySplines="0.61 1 0.88 1; 0.65 0 0.35 1; 0.61 1 0.88 1; 0.65 0 0.35 1"
      keyTimes="0; 0.25; 0.5; 0.75; 1"
      calcMode="spline"
      additive="replace"
      fill="freeze"
      repeatCount="indefinite" />
    <animateTransform
      attributeName="transform"
      type="rotate"
      begin="colibriTakeOff.end"
      dur="3s"
      values="0 21 20; -15 21 20; -5 21 20; 5 21 20; 0 21 20"
      keySplines="0.61 1 0.88 1; 0.65 0 0.35 1; 0.61 1 0.88 1; 0.65 0 0.35 1"
      keyTimes="0; 0.25; 0.5; 0.75; 1"
      calcMode="spline"
      additive="sum"
      fill="freeze"
      repeatCount="indefinite" />
  </g>
  <g id="caseUpperClosed">
    <path d="M185.814 196.001H42.5733C39.501 196.014 36.5589 197.268 34.3902 199.488C32.2215 201.708 31.0026 204.713 31 207.847V228H197.377V207.837C197.372 204.707 196.153 201.705 193.987 199.488C191.82 197.27 188.882 196.017 185.814 196.001Z" fill="#A67EE5" stroke="white" stroke-width="2" stroke-miterlimit="10"/>
    <path d="M227.055 196.001H79.1336C76.0141 195.968 73.0086 197.195 70.7729 199.415C68.5372 201.634 67.2529 204.665 67.2002 207.847V228H238.949V207.837C238.893 204.664 237.613 201.641 235.387 199.425C233.16 197.209 230.166 195.979 227.055 196.001V196.001Z" fill="#A67EE5" stroke="white" stroke-width="2" stroke-miterlimit="10"/>
    <path d="M238.689 217.786C241.622 217.786 244 215.346 244 212.337C244 209.328 241.622 206.888 238.689 206.888C235.755 206.888 233.377 209.328 233.377 212.337C233.377 215.346 235.755 217.786 238.689 217.786Z" fill="#A67EE5" stroke="white" stroke-width="2" stroke-miterlimit="10"/>
    <path d="M238.445 207.837V217.786H227.712C226.96 217.785 226.216 217.632 225.523 217.338C224.829 217.043 224.199 216.612 223.669 216.069C223.138 215.526 222.718 214.882 222.432 214.173C222.145 213.465 221.999 212.706 222 211.939V196.001H226.881C229.951 196.014 232.891 197.267 235.057 199.485C237.224 201.703 238.442 204.706 238.445 207.837Z" fill="#A67EE5" stroke="white" stroke-width="2" stroke-miterlimit="10"/>
    <animate
      attributeName="opacity"
      from="1" to="1"
      begin="introFadeIn.begin"
      dur="10ms"
      fill="freeze"/>
    <animate
      id="caseOpen"
      attributeName="opacity"
      from="1" to="0"
      begin="introFadeIn.end+1s"
      dur="10ms"
      fill="freeze"/>
  </g>
  <g id="caseLower">
    <path d="M240.883 257.897C243.709 257.897 246 255.386 246 252.289C246 249.191 243.709 246.68 240.883 246.68C238.057 246.68 235.767 249.191 235.767 252.289C235.767 255.386 238.057 257.897 240.883 257.897Z" fill="#A67EE5" stroke="white" stroke-width="2" stroke-miterlimit="10"/>
    <path d="M190.846 268H42.9422C39.8151 268.026 36.8044 266.831 34.567 264.676C32.3297 262.521 31.0474 259.581 31 256.497V228.712H202.778V256.478C202.739 259.564 201.461 262.509 199.224 264.669C196.988 266.828 193.976 268.026 190.846 268V268Z" fill="#A67EE5" stroke="white" stroke-width="2" stroke-miterlimit="10"/>
    <path d="M227.322 268H80.4178C77.3014 268.015 74.3051 266.815 72.0827 264.66C69.8604 262.505 68.5924 259.571 68.5555 256.497V228.712H239.174V256.478C239.148 259.554 237.885 262.495 235.664 264.655C233.442 266.815 230.442 268.018 227.322 268Z" fill="#A67EE5" stroke="white" stroke-width="2" stroke-miterlimit="10"/>
    <path d="M175.636 253.422H141.148C140.022 253.443 138.932 253.024 138.118 252.256C137.303 251.488 136.83 250.433 136.801 249.322V237.79C136.804 237.629 136.839 237.469 136.904 237.321C136.969 237.173 137.064 237.04 137.182 236.928C137.3 236.816 137.439 236.728 137.591 236.67C137.744 236.612 137.907 236.583 138.07 236.587H140.948C141.278 236.582 141.596 236.706 141.834 236.931C142.072 237.156 142.21 237.465 142.218 237.79V247.646C142.228 247.99 142.375 248.317 142.628 248.555C142.88 248.793 143.218 248.923 143.567 248.918H173.257C173.606 248.923 173.944 248.793 174.196 248.555C174.449 248.317 174.596 247.99 174.606 247.646V237.79C174.609 237.629 174.644 237.469 174.709 237.321C174.775 237.173 174.869 237.04 174.987 236.928C175.105 236.816 175.244 236.728 175.397 236.67C175.549 236.612 175.712 236.583 175.876 236.587H178.754C179.083 236.582 179.402 236.706 179.64 236.931C179.877 237.156 180.015 237.465 180.023 237.79V249.312C180.01 249.866 179.886 250.413 179.658 250.92C179.431 251.427 179.103 251.885 178.696 252.267C178.288 252.648 177.808 252.947 177.283 253.145C176.758 253.344 176.198 253.438 175.636 253.422V253.422Z" fill="#A67EE5" stroke="white" stroke-width="2" stroke-miterlimit="10"/>
    <path d="M108.36 222H99.2655V234.34H108.36V222Z" fill="#A67EE5" stroke="white" stroke-width="2" stroke-miterlimit="10"/>
    <path d="M217.559 222H208.464V234.34H217.559V222Z" fill="#A67EE5" stroke="white" stroke-width="2" stroke-miterlimit="10"/>
    <path d="M239.174 256.418V246.69H228.781C227.28 246.726 225.855 247.349 224.819 248.421C223.782 249.492 223.22 250.926 223.255 252.407V268H227.982C234.138 268 239.174 262.795 239.174 256.418Z" fill="#A67EE5" stroke="white" stroke-width="2" stroke-miterlimit="10"/>
    <path d="M60.7106 241.072H39.9442C39.6791 241.072 39.4249 240.968 39.2375 240.783C39.0501 240.599 38.9448 240.348 38.9448 240.086V237.583C38.9448 237.321 39.0501 237.071 39.2375 236.886C39.4249 236.701 39.6791 236.597 39.9442 236.597H60.7106C60.9757 236.597 61.2299 236.701 61.4173 236.886C61.6047 237.071 61.71 237.321 61.71 237.583V240.126C61.6997 240.38 61.5898 240.621 61.4035 240.797C61.2172 240.974 60.9689 241.072 60.7106 241.072Z" fill="#A67EE5" stroke="white" stroke-width="2" stroke-miterlimit="10"/>
    <path id="ground" d="M6 269.19H263.52" stroke="white" stroke-width="2" stroke-linecap="round" stroke-linejoin="round"/>
    <animate
      id="introFadeIn"
      attributeName="opacity"
      from="1" to="1"
      begin="6s"
      dur="10ms"
      fill="freeze"/>
  </g>
</svg>
