<svg xmlns="http://www.w3.org/2000/svg" xmlns:xlink="http://www.w3.org/1999/xlink" width="330" height="310" viewBox="0 0 330 310" >
  <g id="cloud1" opacity="0">
    <path d="M51 58H91" stroke="white" stroke-width="2" stroke-miterlimit="10" stroke-linecap="round"/>
    <path d="M71 47H43.6751C43.6751 43.8174 42.3704 40.7652 40.0479 38.5147C37.7255 36.2643 34.5755 35 31.2911 35C28.0066 35 24.8567 36.2643 22.5342 38.5147C20.2117 40.7652 18.907 43.8174 18.907 47H1" stroke="white" stroke-width="2" stroke-miterlimit="10" stroke-linecap="round" fill="none"/>
    <path d="M79 47H101" stroke="white" stroke-width="2" stroke-miterlimit="10" stroke-linecap="round"/>
    <animate
      attributeName="opacity"
      from="0" to="1"
      begin="introFadeIn.end"
      dur="150ms"
      fill="freeze"/>
    <animateTransform
      attributeName="transform"
      type="translate"
      from="25 0" to="0 0"
      begin="introFadeIn.end"
      dur="300ms"
      fill="freeze"/>
    <animateTransform
      attributeName="transform"
      type="scale"
      from="1 1" to="1 0"
      begin="cloudAppear.end+600ms"
      dur="300ms"
      fill="freeze"/>
    <animate
      attributeName="opacity"
      from="1" to="0"
      begin="cloudAppear.end+750ms"
      dur="150ms"
      fill="freeze"/>
  </g>
  <path id="cloud2" d="M220.51 98.9828H201.096C200.974 90.8724 198.087 83.0482 192.915 76.811C187.743 70.5739 180.598 66.2996 172.667 64.6987C164.737 63.0978 156.499 64.2668 149.323 68.0114C142.147 71.7559 136.465 77.8504 133.222 85.2816C129.287 83.0913 124.857 81.9506 120.356 81.9688C115.004 81.9868 109.781 83.6191 105.366 86.6534C100.951 89.6877 97.5493 93.9837 95.6023 98.9828H80.4805C77.7009 98.9828 75.0351 100.09 73.0697 102.061C71.1042 104.031 70 106.704 70 109.491C70 112.278 71.1042 114.951 73.0697 116.922C75.0351 118.893 77.7009 120 80.4805 120H220.52C223.299 120 225.965 118.893 227.93 116.922C229.896 114.951 231 112.278 231 109.491C231 106.704 229.896 104.031 227.93 102.061C225.965 100.09 223.299 98.9828 220.52 98.9828" fill="white" opacity="0">
    <animate
      attributeName="opacity"
      from="0" to="1"
      begin="introFadeIn.end"
      dur="150ms"
      fill="freeze"/>
    <animateTransform
      id="cloudAppear"
      attributeName="transform"
      type="translate"
      from="50 0" to="0 0"
      begin="introFadeIn.end"
      dur="300ms"
      fill="freeze"/>
    <animateTransform
      attributeName="transform"
      type="scale"
      from="1 1" to="1 0"
      begin="cloudAppear.end+600ms"
      dur="300ms"
      fill="freeze"/>
    <animate
      attributeName="opacity"
      from="1" to="0"
      begin="cloudAppear.end+750ms"
      dur="150ms"
      fill="freeze"/>
  </path>
  <g id="cloud3" opacity="0">
    <path d="M258 125H298" stroke="white" stroke-width="2" stroke-miterlimit="10" stroke-linecap="round"/>
    <path d="M286 115H308" stroke="white" stroke-width="2" stroke-miterlimit="10" stroke-linecap="round"/>
    <animate
      attributeName="opacity"
      from="0" to="1"
      begin="introFadeIn.end"
      dur="150ms"
      fill="freeze"/>
    <animateTransform
      attributeName="transform"
      type="translate"
      from="75 0" to="0 0"
      begin="introFadeIn.end"
      dur="300ms"
      fill="freeze"/>
    <animateTransform
      attributeName="transform"
      type="scale"
      from="1 1" to="1 0"
      begin="cloudAppear.end+600ms"
      dur="300ms"
      fill="freeze"/>
    <animate
      attributeName="opacity"
      from="1" to="0"
      begin="cloudAppear.end+750ms"
      dur="150ms"
      fill="freeze"/>
  </g>
  <g id="redHerb">
    <path id="redLeaf" d="M248.626 186.854C248.951 186.613 249.341 186.477 249.744 186.462C250.147 186.448 250.545 186.556 250.886 186.774C251.227 186.991 251.494 187.306 251.653 187.678C251.811 188.051 251.854 188.463 251.775 188.86C250.775 195.881 249.706 209.252 256.622 208.319C261.56 207.657 239.981 176.693 275.932 170.043C276.303 169.965 276.689 169.994 277.044 170.128C277.4 170.262 277.71 170.494 277.938 170.798C278.167 171.102 278.304 171.465 278.335 171.845C278.365 172.224 278.288 172.605 278.111 172.942C276.791 175.69 275.282 179.572 275.382 182.872C275.39 183.306 275.539 183.727 275.805 184.069C276.072 184.412 276.442 184.659 276.861 184.772C277.279 184.885 277.722 184.859 278.125 184.697C278.527 184.535 278.866 184.247 279.09 183.875C283.188 177.706 294.182 165.96 315.661 173.142C316.003 173.254 316.31 173.456 316.547 173.728C316.785 174 316.945 174.331 317.01 174.687C317.939 179.501 321.138 197.998 316.72 203.494C311.633 209.823 301.728 207.647 300.549 213.775C299.249 220.707 308.055 218.61 313.962 213.555C314.259 213.291 314.628 213.122 315.021 213.069C315.415 213.016 315.815 213.082 316.171 213.259C316.527 213.435 316.823 213.714 317.02 214.06C317.218 214.406 317.308 214.802 317.28 215.2C317.03 220.666 315.101 229.242 306.166 233.947C292.393 241.179 282.698 226.925 280.989 230.055C278.401 234.729 288.925 238.551 294.762 240.266C295.133 240.364 295.468 240.568 295.727 240.852C295.986 241.136 296.158 241.49 296.222 241.869C296.286 242.249 296.24 242.639 296.089 242.994C295.939 243.348 295.689 243.651 295.371 243.867C284.857 251.63 266.257 254.178 258.391 238.44C250.096 221.8 245.468 225.912 240.211 217.998C234.504 209.402 235.883 195.39 248.586 186.854H248.626ZM277.971 219.423C278.47 222.161 283.168 222.943 286.316 222.372C289.465 221.8 294.782 218.53 294.312 215.792C293.842 213.053 287.696 211.88 284.537 212.451C281.379 213.023 277.491 216.684 277.991 219.423" fill="#E81A5A">
      <animateTransform
        attributeName="transform"
        type="rotate"
        begin="introFadeIn.end"
        dur="1.5s"
        values="0 246 234; 8 246 234; 0 246 234"
        keySplines="0.45 0 0.55 1; 0.45 0 0.55 1"
        calcMode="spline"
        repeatCount="indefinite"/>
    </path>
    <path id="redStem" d="M248.205 309C248.205 309 243.07 238.486 254 228" stroke="#E81A5A" stroke-width="2" stroke-miterlimit="10" fill="none"/>
  </g>
  <g id="case">
    <g transform="translate(-84 -250)">
      <path d="M93.2773 247C94.2087 246.997 95.1013 246.625 95.76 245.964C96.4186 245.303 96.7898 244.407 96.7924 243.472V238.405C96.7924 237.469 96.4221 236.572 95.7629 235.91C95.1037 235.249 94.2095 234.877 93.2773 234.877C92.345 234.877 91.4509 235.249 90.7916 235.91C90.1324 236.572 89.7621 237.469 89.7621 238.405V243.472C89.7673 244.406 90.1393 245.3 90.7974 245.961C91.4555 246.621 92.3466 246.995 93.2773 247V247Z" fill="#A67EE5" stroke="white" stroke-width="2" stroke-miterlimit="10"/>
      <path d="M18.054 247C18.9855 246.997 19.878 246.625 20.5367 245.964C21.1954 245.303 21.5666 244.407 21.5692 243.472V238.405C21.5692 237.469 21.1988 236.572 20.5396 235.91C19.8804 235.249 18.9863 234.877 18.054 234.877C17.1217 234.877 16.2276 235.249 15.5684 235.91C14.9091 236.572 14.5388 237.469 14.5388 238.405V243.472C14.5414 244.407 14.9126 245.303 15.5713 245.964C16.2299 246.625 17.1225 246.997 18.054 247V247Z" fill="#A67EE5" stroke="white" stroke-width="2" stroke-miterlimit="10"/>
      <path d="M86.8344 149.695H12.6468C6.40461 149.695 1.34435 154.774 1.34435 161.039L1.34435 227.081C1.34435 233.346 6.40461 238.425 12.6468 238.425H86.8344C93.0765 238.425 98.1368 233.346 98.1368 227.081V161.039C98.1368 154.774 93.0765 149.695 86.8344 149.695Z" fill="#A67EE5" stroke="white" stroke-width="2" stroke-miterlimit="10"/>
      <path d="M40.8679 137.332H73.1321C74.2088 137.335 75.2407 137.765 76.0021 138.529C76.7634 139.294 77.1923 140.329 77.195 141.41V157.401C77.195 157.716 77.0701 158.019 76.8479 158.242C76.6257 158.465 76.3242 158.59 76.01 158.59H73.3213C73.007 158.59 72.7056 158.465 72.4833 158.242C72.2611 158.019 72.1363 157.716 72.1363 157.401V143.039C72.1363 142.702 72.003 142.379 71.7658 142.141C71.5287 141.903 71.207 141.77 70.8716 141.77H43.1284C42.793 141.77 42.4713 141.903 42.2341 142.141C41.997 142.379 41.8637 142.702 41.8637 143.039V157.411C41.8637 157.726 41.7389 158.029 41.5166 158.252C41.2944 158.475 40.993 158.6 40.6787 158.6H37.99C37.6758 158.6 37.3744 158.475 37.1521 158.252C36.9299 158.029 36.805 157.726 36.805 157.411V141.42C36.8076 140.338 37.2362 139.302 37.9973 138.536C38.7584 137.77 39.7903 137.337 40.8679 137.332Z" fill="#A67EE5" stroke="white" stroke-width="2" stroke-miterlimit="10"/>
      <path d="M27.0063 238.415H101.194C104.189 238.407 107.059 237.209 109.177 235.084C111.295 232.958 112.488 230.077 112.496 227.071V161.029C112.488 158.023 111.295 155.142 109.177 153.016C107.059 150.891 104.189 149.693 101.194 149.685H27.0063C24.0129 149.696 21.1452 150.895 19.0294 153.02C16.9137 155.145 15.7217 158.024 15.7138 161.029L15.7138 227.071C15.7243 230.075 16.9171 232.952 19.0323 235.077C21.1475 237.202 24.0137 238.402 27.0063 238.415V238.415Z" fill="#A67EE5" stroke="white" stroke-width="2" stroke-miterlimit="10"/>
      <path d="M95.6074 170.593H32.6127" stroke="white" stroke-width="2" stroke-miterlimit="10" stroke-linecap="round"/>
      <path d="M95.6074 194.06H32.6127" stroke="white" stroke-width="2" stroke-miterlimit="10" stroke-linecap="round"/>
      <path d="M95.6074 217.517H32.6127" stroke="white" stroke-width="2" stroke-miterlimit="10" stroke-linecap="round"/>
      <path d="M9.85849 171.843H10.5257L10.5257 216.277H9.85849C8.93136 216.275 8.04281 215.905 7.38631 215.248C6.7298 214.591 6.35851 213.7 6.35326 212.769L6.35326 175.361C6.35326 174.428 6.72255 173.533 7.37991 172.873C8.03727 172.213 8.92884 171.843 9.85849 171.843V171.843Z" fill="#A67EE5" stroke="white" stroke-width="2" stroke-miterlimit="10"/>
      <path d="M57.01 137.052L1.65305 57.2675" stroke="white" stroke-width="2" stroke-linecap="round" stroke-linejoin="round"/>
      <path d="M57.0099 137.052L38.5477 57.2675" stroke="white" stroke-width="2" stroke-linecap="round" stroke-linejoin="round"/>
      <path d="M75.4523 57.2675L57.0099 137.052" stroke="white" stroke-width="2" stroke-linecap="round" stroke-linejoin="round"/>
      <path d="M112.357 57.2675L57.0099 137.052" stroke="white" stroke-width="2" stroke-linecap="round" stroke-linejoin="round"/>
      <path d="M57 1.69904C71.6686 1.70964 85.733 7.56398 96.1034 17.9759C106.474 28.3878 112.302 42.5056 112.307 57.2276C112.307 50.4714 104.042 44.9845 93.8548 44.9845C83.6677 44.9845 75.6216 50.3315 75.4125 56.9777C75.4125 57.0577 75.4125 57.1476 75.4125 57.2376C75.4125 50.4814 67.1473 44.9945 56.9602 44.9945C46.7731 44.9945 38.4979 50.4814 38.4979 57.2376C38.4979 57.1476 38.4979 57.0677 38.4979 56.9777C38.2788 50.3415 30.1132 44.9845 20.0556 44.9845C9.9979 44.9845 1.6132 50.4714 1.6132 57.2276C1.61189 49.9311 3.04286 42.706 5.82434 35.9647C8.60582 29.2234 12.6833 23.0982 17.824 17.9388C22.9646 12.7795 29.0676 8.68713 35.7844 5.89552C42.5012 3.10391 49.7002 1.66775 56.9701 1.66906L57 1.69904ZM56.9701 0.00999647C41.8619 0.0364465 27.3806 6.07448 16.7012 16.8003C6.02179 27.5261 0.0157944 42.0643 0 57.2276C-2.58779e-08 57.4454 0.0427552 57.6612 0.125828 57.8625C0.208901 58.0637 0.330668 58.2466 0.484167 58.4007C0.637666 58.5548 0.819897 58.677 1.02045 58.7603C1.22101 58.8437 1.43596 58.8866 1.65304 58.8866C1.87012 58.8866 2.08508 58.8437 2.28563 58.7603C2.48619 58.677 2.66842 58.5548 2.82192 58.4007C2.97542 58.2466 3.09717 58.0637 3.18024 57.8625C3.26332 57.6612 3.30607 57.4454 3.30607 57.2276C3.30607 51.3909 10.8443 46.6436 20.1053 46.6436C29.1771 46.6436 36.7154 51.3009 36.8947 57.0177V57.2276C36.8947 57.6676 37.0688 58.0896 37.3788 58.4007C37.6888 58.7118 38.1093 58.8866 38.5477 58.8866C38.9861 58.8866 39.4066 58.7118 39.7166 58.4007C40.0266 58.0896 40.2007 57.6676 40.2007 57.2276C40.2007 51.3909 47.739 46.6436 57 46.6436C66.261 46.6436 73.7993 51.3909 73.7993 57.2276C73.7993 57.6676 73.9734 58.0896 74.2834 58.4007C74.5934 58.7118 75.0139 58.8866 75.4523 58.8866C75.8907 58.8866 76.3112 58.7118 76.6212 58.4007C76.9312 58.0896 77.1053 57.6676 77.1053 57.2276V57.0177C77.2846 51.2909 84.8129 46.6336 93.8946 46.6336C103.156 46.6336 110.694 51.3809 110.694 57.2176C110.694 57.6576 110.868 58.0796 111.178 58.3907C111.488 58.7018 111.909 58.8766 112.347 58.8766C112.785 58.8766 113.206 58.7018 113.516 58.3907C113.826 58.0796 114 57.6576 114 57.2176C113.987 42.0501 107.979 27.5072 97.2946 16.7803C86.6104 6.05337 72.1224 0.0185235 57.01 0" fill="white"/>
      <path d="M57 1.7C66.8784 1.7 74.9245 22.5882 75.4623 56.9987C75.6714 50.3524 83.837 45.0054 93.9046 45.0054C103.972 45.0054 112.307 50.5023 112.307 57.2285C112.307 42.4935 106.475 28.362 96.0935 17.9427C85.712 7.52348 71.6318 1.67001 56.9502 1.67001" fill="#E81A5A"/>
      <path d="M56.99 1.7C42.3146 1.7 28.2399 7.54967 17.8609 17.9627C7.48187 28.3758 1.64836 42.4996 1.64308 57.2285C1.64308 50.4723 9.90828 44.9855 20.0854 44.9855C30.2626 44.9855 38.3087 50.3324 38.5278 56.9787C39.0456 22.5682 47.1017 1.69 56.9801 1.69" fill="#FE6183"/>
      <path d="M57 1.7C47.1117 1.7 39.0755 22.5881 38.5378 56.9886C38.5378 57.0786 38.5378 57.1586 38.5378 57.2485C38.5378 50.4923 46.8029 45.0054 56.9901 45.0054C67.1772 45.0054 75.4623 50.5023 75.4623 57.2285C75.4623 57.1386 75.4623 57.0586 75.4623 56.9687C74.9544 22.5582 66.8983 1.67001 57.0199 1.67001" fill="#F7396B"/>
    </g>
    <animateTransform
      attributeName="transform"
      type="scale"
      from="0" to="1"
      begin="cloudAppear.end"
      dur="1367ms"
      keySplines="0.17 0 0.83 1"
      calcMode="spline"
      additive="sum"
      fill="freeze"/>
    <animateTransform
      attributeName="transform"
      type="rotate"
      begin="cloudAppear.end"
      dur="1367ms"
      values="30; -30; 20; 18.29; -6.48; 0"
      keyTimes="0; 0.29; 0.56; 0.68; 0.93; 1"
      keySplines="0.33 0 0.67 1; 0.33 0 0.67 1; 0.33 0 0.67 1; 0.33 0 0.67 1; 0.17 0 0.83 1"
      calcMode="spline"
      additive="sum"
      fill="freeze"/>
    <animateTransform
      attributeName="transform"
      type="translate"
      begin="cloudAppear.end"
      dur="1367ms"
      values="0 -50; 0 -50; 0 33"
      keyTimes="0; 0.2; 1"
      additive="sum"
      fill="freeze"/>
    <animateMotion
      begin="cloudAppear.end"
      dur="1367ms"
      path="M179,111c24.19-9.24,29.8-15.84,29.42-20.44C207.18,75.43,138.73,51.78,96,84c-2.93,2.21-31.66,24.52-29,54,3.54,39.18,59.83,61.15,75.7,67.35,53.65,20.94,94.43,8.79,101.78,27.18,2.89,7.25.78,19.69-21.48,42.47"
      fill="freeze"/>
  </g>
  <g id="pinkHerb">
    <path id="pinkLeaf" d="M308.356 263.346C308.638 263.621 308.838 263.968 308.935 264.35C309.031 264.731 309.021 265.132 308.903 265.508C307.848 268.925 304.345 278.31 296.859 281.787C291.753 284.158 288.567 279.097 285.989 282.554C283.411 286.011 288.08 287.535 292.877 286.848C293.292 286.78 293.717 286.835 294.101 287.006C294.484 287.177 294.809 287.457 295.036 287.811C295.262 288.165 295.381 288.577 295.375 288.997C295.37 289.418 295.243 289.827 295.008 290.176C293.756 292.157 292.036 293.8 289.999 294.959C287.963 296.117 285.673 296.757 283.332 296.821C272.541 297.09 270.839 285.284 268.828 286.669C266.121 288.552 270.093 293.194 273.198 296.203C273.496 296.489 273.705 296.854 273.801 297.256C273.897 297.657 273.876 298.078 273.739 298.468C273.603 298.857 273.357 299.199 273.032 299.453C272.707 299.707 272.315 299.862 271.904 299.899C263.185 300.736 252.275 296.402 252.195 284.955C252.116 272.064 247.965 273.199 247.109 266.674C246.203 259.819 250.971 251.849 260.786 250.046C261.18 249.974 261.587 250.014 261.961 250.161C262.334 250.309 262.658 250.558 262.898 250.88C263.137 251.202 263.281 251.585 263.314 251.985C263.347 252.386 263.268 252.787 263.085 253.144C260.686 257.857 257.113 265.697 260.278 265.658C263.722 265.658 258.705 243.162 288.577 250.455C288.938 250.544 289.269 250.724 289.539 250.98C289.809 251.235 290.008 251.555 290.117 251.911C290.226 252.266 290.242 252.643 290.162 253.006C290.083 253.369 289.91 253.705 289.662 253.981L289.563 254.091C289.238 254.452 289.044 254.913 289.014 255.398C288.984 255.884 289.119 256.365 289.398 256.763C289.676 257.162 290.081 257.455 290.546 257.594C291.012 257.732 291.511 257.709 291.962 257.528C295.605 256.014 301.08 256.263 308.356 263.346" fill="#FE6183"/>
    <path id="pinkStem" d="M231 309C231 309 234.368 278 252 278" stroke="#FE6183" stroke-width="2" stroke-miterlimit="10" fill="none"/>
    <animateTransform
      attributeName="transform"
      type="rotate"
      begin="introFadeIn.end-200ms"
      dur="2.5s"
      values="0 230 308; 6 230 308; 8 230 308; -3 230 308; 2 230 308; -1 230 308; 0 230 308"
      keyTimes="0; 0.2; 0.3; 0.45; 0.6; 0.7; 1"
      keySplines="0.5 0 0.75 1; 0.5 1 0.89 1; 0.45 0 0.55 1; 0.45 0 0.55 1; 0.45 0 0.55 1; 0.45 0 0.55 1"
      calcMode="spline"
      repeatCount="indefinite"/>
  </g>
  <path id="ground" d="M27,309 L268,309" stroke="white" stroke-width="2" opacity="0" transform="translate(-150 0)">
    <animate
      id="introFadeIn"
      attributeName="opacity"
      from="0" to="1"
      begin="4.5s"
      dur="100ms"
      fill="freeze"/>
    <animateTransform
      attributeName="transform"
      type="translate"
      from="-150 0" to="0 0"
      begin="introFadeIn.end-100ms"
      dur="250ms"
      fill="freeze"/>
    <animate
      attributeName="d"
      begin="introFadeIn.end+150ms"
      values="M27,309 L268,309; M132,309 L268,309"
      dur="150ms"
      fill="freeze"/>
  </path>
</svg>
